<svg xmlns="http://www.w3.org/2000/svg" viewBox="0 0 447.99 384"><title>gallery</title><g id="Layer_2" data-name="Layer 2"><g id="Layer_1-2" data-name="Layer 1"><path d="M425.57,76.17l-82.5-4-4.8-53.8c-1-11.3-11.1-19.2-22.9-18.3L19.47,24.37c-11.8,1-20.3,10.5-19.4,21.7l21.2,235.8c1,11.3,11.2,19.2,22.9,18.3l15-1.2-2.4,45.8c-.6,12.6,9.2,22.8,22.4,23.5L409.27,384c13.2.6,24.1-8.6,24.8-21.2L448,99.47C448.57,87,438.67,76.77,425.57,76.17Zm-354.9,5.3-7.1,134.8L46.07,241,30,63V62c1-5,4.4-9,9.6-9.4l261-21.4a9.65,9.65,0,0,1,10.5,7.9c0,.2.3.2.3.4s.3.2.3.4l2.7,30.8-219-10.5c-13.2-.4-24.1,8.8-24.7,21.3Zm334,236.9-84.8-99.5-37.4,34.3-69.2-80.8L90.57,303.07,101,104v-.4a11.44,11.44,0,0,1,11.9-9l291.2,14a10.62,10.62,0,0,1,10.4,10.2c0,.2.3.3.3.5l-10.1,199.1Z"/><path d="M352,192a32,32,0,1,0-32-32A32.09,32.09,0,0,0,352,192Z"/></g></g></svg>